<?xml version="1.0" standalone="no"?>
<!DOCTYPE svg PUBLIC "-//W3C//DTD SVG 20010904//EN"
 "http://www.w3.org/TR/2001/REC-SVG-20010904/DTD/svg10.dtd">
<svg version="1.0" xmlns="http://www.w3.org/2000/svg"
 width="551.000000pt" height="317.000000pt" viewBox="0 0 551.000000 317.000000"
 preserveAspectRatio="xMidYMid meet">
<metadata>
Created by potrace 1.15, written by Peter Selinger 2001-2017
</metadata>
<g transform="translate(0.000000,317.000000) scale(0.100000,-0.100000)"
fill="#000000" stroke="none">
<path d="M712 2929 c-126 -16 -240 -90 -313 -201 -73 -114 -70 -64 -67 -1183
l3 -1000 32 -68 c62 -131 189 -232 322 -257 34 -6 565 -10 1476 -10 1369 0
1426 1 1484 19 161 50 284 191 311 357 6 33 10 225 10 428 l0 368 68 -6 c221
-20 1003 -67 1037 -62 68 11 155 66 197 125 47 68 62 134 47 214 -25 141 -119
235 -251 253 -23 3 -271 -8 -549 -25 -278 -17 -515 -31 -527 -31 l-22 0 0 323
c0 177 -4 348 -10 381 -32 196 -193 351 -390 376 -92 12 -2767 11 -2858 -1z
m2939 -140 c72 -34 134 -96 168 -168 l26 -56 5 -403 c5 -389 6 -404 25 -419
14 -10 34 -13 65 -9 124 14 1109 69 1132 63 38 -10 95 -62 119 -108 44 -86 4
-199 -86 -247 -39 -20 -56 -20 -674 23 -288 19 -532 33 -542 30 -11 -4 -21
-16 -24 -28 -3 -12 -6 -213 -8 -447 -2 -370 -5 -431 -20 -468 -38 -97 -116
-174 -210 -206 -43 -14 -186 -16 -1486 -16 -1580 0 -1475 -4 -1565 61 -51 36
-99 99 -124 161 -16 39 -17 121 -20 997 -3 1061 -5 1027 64 1128 37 53 106
105 172 129 30 11 301 13 1482 11 l1445 -2 56 -26z"/>
<path d="M2240 2310 c-41 -4 -160 -8 -263 -9 -144 -1 -196 -5 -224 -16 -38
-16 -73 -42 -73 -55 0 -21 250 -70 390 -77 l115 -6 12 46 13 45 157 -3 c132
-2 161 0 176 13 9 8 17 23 17 32 0 10 -8 21 -17 25 -26 11 -216 14 -303 5z"/>
<path d="M1940 1988 c-52 -35 -59 -68 -59 -278 -1 -246 10 -281 95 -300 73
-17 130 28 141 110 6 41 5 42 -23 38 -23 -2 -30 -9 -35 -35 -13 -64 -58 -83
-95 -42 -17 19 -19 39 -19 224 0 186 2 205 19 224 28 31 62 27 81 -9 8 -16 15
-36 15 -46 0 -11 5 -14 16 -10 9 3 22 6 30 6 18 0 18 20 -1 67 -18 44 -39 60
-92 69 -30 4 -45 1 -73 -18z"/>
<path d="M807 1994 c-4 -4 -7 -135 -7 -291 l0 -283 35 0 35 0 0 108 c0 74 4
114 13 126 12 16 19 4 61 -108 49 -126 49 -126 81 -126 l33 0 -65 163 -65 162
61 123 c34 67 61 124 61 127 0 3 -14 5 -30 5 -28 0 -33 -7 -88 -116 l-57 -115
-5 113 c-5 112 -5 113 -30 116 -14 2 -29 0 -33 -4z"/>
<path d="M1237 1993 c-4 -3 -7 -134 -7 -290 l0 -283 35 0 35 0 0 290 0 290
-28 0 c-16 0 -32 -3 -35 -7z"/>
<path d="M1487 1994 c-4 -4 -7 -18 -7 -31 0 -20 5 -23 40 -23 l40 0 0 -260 0
-260 35 0 35 0 0 260 0 260 41 0 c38 0 40 1 37 28 l-3 27 -106 3 c-58 1 -108
-1 -112 -4z"/>
<path d="M2320 1710 l0 -290 30 0 30 0 0 130 0 130 65 0 65 0 0 -130 0 -130
30 0 30 0 0 290 0 290 -30 0 -30 0 0 -135 0 -135 -65 0 -65 0 0 135 0 135 -30
0 -30 0 0 -290z"/>
<path d="M2800 1710 l0 -290 105 0 105 0 0 25 c0 24 -2 25 -75 25 l-75 0 0
105 0 105 65 0 c63 0 65 1 65 25 0 24 -2 25 -65 25 l-65 0 0 105 0 105 70 0
70 0 0 30 0 30 -100 0 -100 0 0 -290z"/>
<path d="M3217 1993 c-4 -3 -7 -134 -7 -290 l0 -283 35 0 35 0 0 198 1 197 52
-160 c29 -88 57 -176 63 -195 9 -31 14 -35 47 -38 l37 -3 -2 288 -3 288 -30 0
-30 0 -5 -200 c-5 -187 -6 -197 -18 -155 -8 25 -36 116 -64 203 -48 152 -51
157 -77 157 -15 0 -31 -3 -34 -7z"/>
<path d="M4942 1687 c-50 -53 -13 -137 59 -137 47 0 79 34 79 81 0 71 -90 107
-138 56z"/>
<path d="M913 1210 c-13 -5 -23 -14 -23 -21 0 -7 7 -8 18 -4 40 17 54 17 72 0
32 -29 25 -45 -21 -45 -52 0 -79 -15 -79 -43 0 -33 19 -47 60 -47 20 0 41 5
48 12 9 9 12 9 12 0 0 -7 5 -12 10 -12 11 0 14 119 2 136 -9 14 -47 34 -64 33
-7 0 -23 -4 -35 -9z"/>
<path d="M1973 1210 c-12 -5 -29 -23 -38 -40 -13 -26 -14 -38 -5 -66 13 -40
35 -54 82 -54 38 0 78 23 60 34 -6 3 -13 2 -17 -4 -10 -17 -71 -11 -88 8 -10
10 -17 21 -17 25 0 3 30 7 67 9 81 4 92 21 45 68 -31 31 -51 35 -89 20z"/>
<path d="M2443 1210 c-38 -15 -26 -29 13 -17 33 10 38 9 55 -12 28 -34 24 -41
-22 -41 -52 0 -79 -15 -79 -43 0 -33 19 -47 60 -47 20 0 41 5 48 12 9 9 12 9
12 0 0 -7 5 -12 10 -12 11 0 14 119 2 136 -9 14 -47 34 -64 33 -7 0 -23 -4
-35 -9z"/>
</g>
</svg>
